<?xml version="1.0" encoding="UTF-8"?><svg id="Layer_1" xmlns="http://www.w3.org/2000/svg" viewBox="0 0 20.671 29.233"><defs><style>.cls-1{fill:#ae9a7f;}</style></defs><path class="cls-1" d="M7.326,24.889c-.159-.401-.573-.383-.851-.374-.64.019-1.175-.311-1.774-.4-.18-.027-.36-.057-.54-.086l.012.011c-.209-.227-.378-.526-.634-.668-.683-.379-1.225-.888-1.663-1.522-.595-.86-.68-1.826-.575-2.825.023-.218.126-.428.189-.631.18-.085.345-.162.54-.255.023-.306.046-.614.072-.963.38-.295.784-.577,1.327-.558.198.007.404.03.595-.01.514-.107.896.279,1.365.342.098.013.178.201.256.315.323.472.643.947,1.004,1.481.088.006.267.018.52.034-.128.293-.233.549-.351.799-.28.591-.548,1.19-.859,1.765-.201.372-.489.695-.697,1.063-.156.275-.246.587-.369.891.057.083.127.184.245.356.728.096,1.511.2,2.35.311.532-.237.678-.808.885-1.352.077-.202.267-.36.406-.538-.048.299-.104.597-.142.897-.032.255-.043.512-.07.856.422-.062.751-.064,1.047-.165.342-.116.681-.282.974-.492.415-.296.866-.595,1.156-.998.355-.493.584-1.084.817-1.653.078-.19.06-.471-.022-.663-.216-.505-.492-.984-.745-1.474-.253-.49-.538-.657-.97-.565.209-.277.019-.528-.137-.683-.496-.489-1.032-.939-1.567-1.387-.105-.087-1.473-1.506-1.809-1.957-.186-.25-.29-.561-.477-.81-.429-.572-.51-1.28-.736-1.922-.2-.569-.196-1.225-.202-1.844-.005-.531.044-1.078.176-1.59.132-.515.46-.98.587-1.496.209-.844.911-1.269,1.421-1.859.505-.583,1.155-.945,1.822-1.309.394-.215.815-.263,1.203-.417.875-.348,1.783-.331,2.724-.425.425-.681.517-1.614,1.355-2.052.51-.186.946.057,1.369.314.3.182.286.602-.012.877-.1.093-.212.172-.379.307-.339-.075-.725-.161-1.103-.244-.196.266-.366.495-.593.803.336.081.602.142.867.211.429.111.858.221,1.284.342.345.098.671.107.9-.178.383-.613.767-1.226,1.126-1.8.583-.04,1.054-.101,1.429.38.206.264.308.507.223.805-.092.323-.391.377-.674.401-.152.013-.313-.009-.462-.048-.572-.149-.738-.098-1.069.36-.065.09-.134.176-.241.317.999,1.043,2.102,2.027,2.822,3.666-.013.37.027,1.035-.079,1.675-.073.441-.332.857-.537,1.27-.164.33-.331.672-.566.948-.634.745-1.434,1.198-2.43.916-.527-.149-1.144-.212-1.504-.724-.261-.372-.485-.771-.735-1.173h-.242c-.184.398-.356.769-.527,1.137.595.629,1.229,1.204,1.744,1.871.464.601.845,1.28,1.173,1.967.228.477.273,1.029.231,1.574-.069.902-.05,1.818-.207,2.703-.09.506-.425.981-.699,1.44-.495.827-1.081,1.591-1.818,2.218-.382.325-.806.602-1.224.88-.383.255-.758.574-1.185.7-.819.242-1.559.776-2.485.671-.302-.034-.623.133-.939.166-.242.025-.492-.017-.73-.058-.199.04-.398.08-.596.119l.011.011ZM3.579,18.173l-.011-.012c-.166.049-.33.118-.5.144-.224.034-.452.036-.679.051.001.043.002.085.003.128.287.023.575.047.882.071.244.242.522.255.729.099.506.062.934.114,1.362.166,0,.033,0,.067,0,.1-1.076.089-2.19-.118-3.23.363.108.096.218.194.334.297.491-.036.986.125,1.46-.157.12-.071.352.007.519.06.452.142.897.202,1.325.043.332-.729-.244-1.204-.366-1.764-.127-.092-.229-.166-.347-.251h-1.835c-.12.099-.252.208-.419.346.291.119.532.218.773.316ZM12.597,17.912c.069-.138.138-.277.223-.446h2.617c.031-.142.055-.255.101-.468-.264.012-.46.029-.657.029-.917,0-1.834.004-2.75-.015-.112-.002-.222-.129-.333-.198.012-.043.025-.087.037-.13.131-.02.261-.055.392-.057.694-.009,1.389-.008,2.083-.014.269-.002.541.006.806-.03.177-.023.412-.05.347-.376-.508-.04-1.011-.099-1.515-.111-.307-.007-.615.081-.924.089-.624.017-1.248.007-1.872.015-.131.002-.262.029-.448.051.074.119.095.193.144.226.563.38,1.05.84,1.496,1.35.05.057.174.05.263.073.134.258.319.503.392.778.217.819.375,1.65.071,2.487-.127.35-.264.696-.402,1.06.056.086.116.176.205.312.208-.086.404-.167.607-.252-.113-.207-.2-.367-.306-.562.438-.097.881.065,1.124-.352-.199-.191-.649.064-.639-.46h.885c.12-.164.206-.28.359-.49h-1.263c.454-.476.922-.292,1.397-.237.01-.217.018-.375.027-.554-.479-.028-.91-.053-1.342-.079,0-.046,0-.091,0-.137.547-.089,1.094-.178,1.681-.274.024-.099.05-.212.094-.396h-2.293c.031-.166.049-.264.069-.369h2.233c-.025-.155-.046-.284-.075-.466h-2.835ZM19.171,9.023c.038.014.076.027.114.041.159-.283.413-.552.458-.851.128-.853.078-1.71-.326-2.501-.123-.242-.358-.436-.447-.685-.124-.348-.382-.528-.652-.724-.278-.201-.541-.422-.855-.669-.077-.01-.217-.028-.396-.051-.232-.536-.717-.572-1.231-.57-.282.001-.568-.019-.845-.071-.266-.05-.523-.152-.733-.216-.368.225-.657.401-.98.599-.076-.032-.213-.089-.351-.147-.323.231-.629.436-.918.663-.161.126-.298.284-.437.435-.451.488-.779,1.042-.851,1.714-.089.831.271,1.558.574,2.294.063.152.136.334.261.421.666.466,1.234,1.069,1.983,1.414.078.036.187.005.264.005.178-.391.349-.753.51-1.12.234-.533.447-1.076.695-1.602.229-.485.507-.947.734-1.432.235-.502.401-1.04.667-1.523.104-.188.161-.544.627-.48-.037.151-.051.305-.112.436-.079.172-.209.321-.293.492-.218.443-.425.892-.632,1.34-.17.368-.372.732-.192,1.187,1.667-.617,2.833-.169,3.361,1.603ZM13.033,11.684c-.488-.37-.939-.712-1.375-1.043-.167.043-.314.106-.463.114-.254.014-.511-.007-.766-.011-.525-.008-1.054.025-1.574-.034-.352-.04-.683-.107-1.032.019-.134.048-.301.008-.491.008.019-.156.031-.258.051-.424.677,0,1.329.026,1.978-.007.636-.033,1.286.138,2.033-.101-.374-.449-.691-.829-.999-1.198h-3.565c-.004-.022-.008-.045-.011-.067-.097.071-.195.143-.296.217.177.289.43.335.709.334.88-.001,1.759-.001,2.639.005.124,0,.248.037.372.057-.387.3-.777.409-1.21.257-.078-.028-.165-.055-.246-.048-.66.057-1.32.122-2.031.189-.072.116-.172.278-.219.353.149.59.275,1.086.381,1.503.163.268.275.476.41.668.219.311.434.569.903.563,1.717-.021,3.434.008,5.152.024.146.001.292.037.439.057.009.047.018.094.027.141-.182.067-.361.183-.546.192-.609.029-1.22.022-1.83.024-1.075.002-2.15,0-3.258,0-.01.181-.017.296-.026.453.24,0,.435-.002.63,0,.198.002.434-.058.588.027.525.289,1.084.119,1.622.184.108.013.258.014.329-.048.269-.234.584-.171.889-.183.506-.02,1.012-.036,1.518-.053-.002-.011-.003-.022-.005-.033.27.018.539.037.888.061-.167-.63-.426-1.076-.902-1.461-.301.065-.624.182-.95.195-.708.027-1.419-.016-2.128,0-.906.022-1.81-.171-2.72-.013-.11.019-.25-.14-.435-.252.154-.167.237-.256.268-.29.568,0,1.036,0,1.504,0,.645.001,1.291-.008,1.935.01.377.01.754.087,1.13.088.227,0,.454-.087.682-.136v-.338ZM9.878,7.984c-.336.079-.59.139-.844.199.003.027.005.054.008.082-.118-.042-.235-.083-.355-.126-.432.184-1.222.076-1.378-.218.033-.078.073-.176.14-.336h2.173c-.132-.558-.245-1.034-.356-1.499.065-.212.122-.436.203-.652.163-.435.246-.916.711-1.181.078-.044.08-.222.117-.338-.027-.029-.054-.058-.082-.087-.246.065-.492.13-.644.17-.181.304-.306.516-.416.702-.193.016-.333.028-.474.04.021.025.042.05.063.075-.119.052-.239.104-.412.179.243.168.404.279.618.426-.295.028-.515.048-.782.073.025.155.043.267.057.359.294.048.535.088.795.131-.029.121-.037.219-.055.221-.525.055-1.05.101-1.602.151-.334.728-.619,1.481-.616,2.337h3.13v-.706ZM18.436,9.357c.028.038.056.077.084.115-.115.083-.221.218-.346.239-.263.044-.536.033-.804.035-.507.004-1.013.001-1.56.001-.021.161-.035.271-.057.442h2.704c.235-.216.426-.392.664-.609-.255-.253-.488-.485-.745-.74h-1.872c.486-.254,1.141.124,1.517-.474-.704-.369-.956-.416-1.761-.331-.711.79-.745.852-.674,1.209h2.392c-.002-.018-.005-.037-.007-.055.155.056.311.113.466.169ZM9.164,15.011c.138-.037.294-.097.455-.116.272-.032.548-.06.819-.045.216.012.43.134.643.13.443-.008.875-.01,1.326-.152.452-.142.982-.034,1.477-.046.331-.008.662-.033,1.006-.051-.099-.368-.107-.386-.436-.388-.538-.003-1.076.013-1.614.015-1.174.003-2.349,0-3.504,0-.169.119-.32.225-.464.326.092.103.175.195.292.326ZM2.564,21.298c.271.923,1.037,1.306,1.587,1.865h.366c.233-.493.445-.941.667-1.411-.083-.09-.165-.178-.271-.293-.799.438-1.55-.032-2.35-.16ZM10.61,16.057c.01-.026.02-.052.029-.078.145-.065.285-.172.435-.187.64-.067,1.283-.111,1.926-.154.125-.009.253.023.38.031.478.032.956.084,1.434.081.17-.001.339-.139.509-.214-.003-.043-.006-.086-.009-.13-.235-.064-.469-.172-.706-.18-.305-.011-.612.085-.919.089-.723.01-1.446-.013-2.169-.01-.443.002-.887.013-1.329.049-.104.008-.198.134-.303.21.113.176.188.294.276.431.145.02.295.041.446.063ZM5.369,19.805c-.572,0-1.121.029-1.666-.009-.449-.031-.847.03-1.206.331.11.079.208.151.273.198.215-.032.403-.081.592-.085.536-.013,1.072-.004,1.608-.011.15-.002.301-.029.484-.047-.033-.147-.055-.249-.084-.377ZM4.394,20.755c-.394-.219-.802-.206-1.034.034.449.342.646.336,1.034-.034Z"/><path class="cls-1" d="M4.161,24.028c.091.47-.039.882-.315,1.263-.073.1-.105.229-.162.342-.304.603-.601,1.209-.916,1.807-.237.449-.468.905-.752,1.325-.401.592-.902.493-1.378.393-.136-.029-.264-.093-.397-.141-.326-.748-.326-1.02.024-1.62h.778c.351.223.614.391.87.554.503-.536.75-1.153.978-1.794.14-.392.418-.734.623-1.104.12-.218.219-.448.268-.716.13-.099.26-.198.39-.296l-.012-.011Z"/><path class="cls-1" d="M7.315,24.878c.051.414-.113.745-.35,1.078-.197.276-.312.609-.465.917-.282.567-.6,1.111-1.035,1.578-.027.029-.031.078-.045.116-.308.125-.614.25-.942.384-.241-.233-.793-.026-.9-.573-.092-.47.179-.733.5-1.007.13-.026.282-.057.383-.078.311.213.586.401.908.621.573-.956,1.095-1.827,1.617-2.698-.026-.019-.052-.038-.078-.057.14-.089.28-.179.42-.268l-.011-.011Z"/><path class="cls-1" d="M10.782,18.16c-.202.486-.403.973-.608,1.458-.097.23-.187.464-.306.681-.043.079-.163.116-.247.172.178-.491.355-.982.534-1.472.051-.139.132-.272.159-.415.051-.27.165-.445.469-.424Z"/><path class="cls-1" d="M9.632,20.458c-.009.401.022.809-.369,1.092-.08.058-.049.257-.126.337-.092.097-.244.137-.369.202.157-.613.28-1.244.864-1.631Z"/><path class="cls-1" d="M12.341,5.574c-.067.291-.134.581-.204.884-.097.131-.201.271-.305.412-.029-.005-.057-.011-.086-.016.066-.315.131-.63.198-.949.111-.118.222-.234.332-.351.021.007.043.013.064.02Z"/><path class="cls-1" d="M13.189,3.983c-.081.228-.163.455-.244.683-.035-.002-.071-.005-.106-.007-.017-.179-.035-.359-.052-.541.131-.077.235-.138.339-.198l.064.063Z"/><path class="cls-1" d="M12.215,11.583h-4.868c.148-.173.234-.274.344-.403,1.093,0,2.194-.002,3.295.001.297,0,.597-.009.889.034.141.021.265.153.397.234-.019.044-.038.089-.057.133Z"/><path class="cls-1" d="M7.634,7.137v-.346h1.484c.029.119.053.218.084.346h-1.568Z"/><path class="cls-1" d="M3.579,18.173c.004-.014.004-.03.012-.04.21-.264,1.331-.316,1.541-.068.022.026.009.081.016.164-.538.266-1.057-.03-1.581-.068l.011.012Z"/></svg>